# xmcd
#
# Track frame offsets:
#	150
#	13548
#	25157
#	42200
#	51394
#	66133
#	84211
#	100064
#	113407
#	126804
#	140321
#	158221
#	175944
#	189852
#	198243
#	213637
#
# Disc length: 3099 seconds
#
# Revision: 3
# Processed by: cddbd v1.5.2PL0 Copyright (c) Steve Scherf et al.
# Submitted via: audiograbber 1.83.01
#
DISCID=cb0c1910
DTITLE=Nils Landgren - Christmas With My Friends VI
DYEAR=2018
DGENRE=Jazz
TTITLE0=Christmas Is [lead vocals by Nils Landgren and Sharon Dyall and Jessica Pil
TTITLE0=näs and Ida Sand]
TTITLE1=Oh No, It's Christmas Again [vocals by Nils Landgren]
TTITLE2=Who Comes This Night [vocals by Ida Sand]
TTITLE3=Wie soll ich dich empfangen, BWV 248 [all artists singing]
TTITLE4=Little Drummer Boy - Peace On Earth [vocals by Nils Landgren and Jeanette
TTITLE4=Köhn]
TTITLE5=Come One, Come All [lead vocals by Sharon Dyall]
TTITLE6=What Are You Doing New Year's Eve? [vocals by Jessica Pilnäs]
TTITLE7=The Story Of Christmas [vocals by Ida Sand and Sharon Dyall and Jessica Pil
TTITLE7=näs]
TTITLE8=I Have A Dream [vocals by Nils Landgren and Johan Norberg]
TTITLE9=Merry Christmas Baby [vocals by Ida Sand]
TTITLE10=Christmas Lullaby [vocals by Ida Sand and Jeanette Köhn]
TTITLE11=When This Night Is Over [vocals by Jessica Pilnäs]
TTITLE12=I'd Like You For Christmas [vocals by Sharon Dyall]
TTITLE13=Hymn No III [instrumental]
TTITLE14=Den signade dag [vocals by Jeanette Köhn]
TTITLE15=Hark! The Herald Angels Sing [lead vocals by Jeanette Köhn]
EXTD=
EXTT0=
EXTT1=
EXTT2=
EXTT3=
EXTT4=
EXTT5=
EXTT6=
EXTT7=
EXTT8=
EXTT9=
EXTT10=
EXTT11=
EXTT12=
EXTT13=
EXTT14=
EXTT15=
PLAYORDER=
